<mxfile host="app.diagrams.net" modified="2020-10-21T10:59:07.997Z" agent="5.0 (X11)" etag="OuUz0Br_PKsm-0XUrkB-" version="13.7.7" type="github">
  <diagram name="Page-1" id="c37626ed-c26b-45fb-9056-f9ebc6bb27b6">
    <mxGraphModel dx="1355" dy="776" grid="1" gridSize="10" guides="1" tooltips="1" connect="1" arrows="1" fold="1" page="1" pageScale="1" pageWidth="1100" pageHeight="850" background="#ffffff" math="0" shadow="0">
      <root>
        <mxCell id="0" />
        <mxCell id="1" parent="0" />
        <mxCell id="1c7a67bf8fd3230f-83" value="Data" style="whiteSpace=wrap;html=1;rounded=0;shadow=0;comic=0;strokeWidth=1;fontFamily=Verdana;fontSize=14;fillColor=#f5f5f5;strokeColor=none;verticalAlign=top;fontStyle=1" parent="1" vertex="1">
          <mxGeometry x="460" y="246" width="960" height="164" as="geometry" />
        </mxCell>
        <mxCell id="1c7a67bf8fd3230f-82" value="App" style="whiteSpace=wrap;html=1;rounded=0;shadow=0;comic=0;strokeWidth=1;fontFamily=Verdana;fontSize=14;fillColor=#f5f5f5;strokeColor=none;fontStyle=1;verticalAlign=top;" parent="1" vertex="1">
          <mxGeometry x="970" y="425" width="450" height="345" as="geometry" />
        </mxCell>
        <mxCell id="1c7a67bf8fd3230f-80" value="Client" style="whiteSpace=wrap;html=1;rounded=0;shadow=0;comic=0;strokeWidth=1;fontFamily=Verdana;fontSize=14;fillColor=#f5f5f5;strokeColor=none;fontStyle=1;verticalAlign=top;" parent="1" vertex="1">
          <mxGeometry x="460" y="425" width="480" height="345" as="geometry" />
        </mxCell>
        <mxCell id="1c7a67bf8fd3230f-37" style="edgeStyle=none;html=1;labelBackgroundColor=none;startFill=0;endArrow=none;endFill=0;strokeWidth=2;fontFamily=Verdana;fontSize=12;" parent="1" target="1c7a67bf8fd3230f-5" edge="1">
          <mxGeometry relative="1" as="geometry">
            <mxPoint x="784" y="370.54838709677415" as="sourcePoint" />
          </mxGeometry>
        </mxCell>
        <mxCell id="1c7a67bf8fd3230f-38" style="edgeStyle=none;html=1;labelBackgroundColor=none;startFill=0;endArrow=none;endFill=0;strokeWidth=2;fontFamily=Verdana;fontSize=12;" parent="1" target="1c7a67bf8fd3230f-5" edge="1">
          <mxGeometry relative="1" as="geometry">
            <mxPoint x="978.329411764706" y="396" as="sourcePoint" />
          </mxGeometry>
        </mxCell>
        <mxCell id="1c7a67bf8fd3230f-39" style="edgeStyle=none;html=1;labelBackgroundColor=none;startFill=0;endArrow=none;endFill=0;strokeWidth=2;fontFamily=Verdana;fontSize=12;" parent="1" target="1c7a67bf8fd3230f-5" edge="1">
          <mxGeometry relative="1" as="geometry">
            <mxPoint x="1129.2352941176473" y="396" as="sourcePoint" />
          </mxGeometry>
        </mxCell>
        <mxCell id="1c7a67bf8fd3230f-40" style="edgeStyle=none;html=1;labelBackgroundColor=none;startFill=0;endArrow=none;endFill=0;strokeWidth=2;fontFamily=Verdana;fontSize=12;" parent="1" target="1c7a67bf8fd3230f-5" edge="1">
          <mxGeometry relative="1" as="geometry">
            <mxPoint x="1350" y="370" as="sourcePoint" />
          </mxGeometry>
        </mxCell>
        <mxCell id="1c7a67bf8fd3230f-41" style="edgeStyle=none;html=1;labelBackgroundColor=none;startFill=0;endArrow=none;endFill=0;strokeWidth=2;fontFamily=Verdana;fontSize=12;" parent="1" source="1c7a67bf8fd3230f-5" edge="1">
          <mxGeometry relative="1" as="geometry">
            <mxPoint x="1250" y="523" as="targetPoint" />
          </mxGeometry>
        </mxCell>
        <mxCell id="1c7a67bf8fd3230f-45" style="edgeStyle=none;html=1;labelBackgroundColor=none;startFill=0;endArrow=none;endFill=0;strokeWidth=2;fontFamily=Verdana;fontSize=12;" parent="1" target="1c7a67bf8fd3230f-6" edge="1">
          <mxGeometry relative="1" as="geometry">
            <mxPoint x="1030" y="523" as="sourcePoint" />
          </mxGeometry>
        </mxCell>
        <mxCell id="1c7a67bf8fd3230f-49" style="edgeStyle=none;html=1;labelBackgroundColor=none;startFill=0;endArrow=none;endFill=0;strokeWidth=2;fontFamily=Verdana;fontSize=12;" parent="1" target="1c7a67bf8fd3230f-46" edge="1">
          <mxGeometry relative="1" as="geometry">
            <mxPoint x="1030" y="555.1203007518798" as="sourcePoint" />
          </mxGeometry>
        </mxCell>
        <mxCell id="1c7a67bf8fd3230f-50" style="edgeStyle=none;html=1;labelBackgroundColor=none;startFill=0;endArrow=none;endFill=0;strokeWidth=2;fontFamily=Verdana;fontSize=12;" parent="1" source="1c7a67bf8fd3230f-5" edge="1">
          <mxGeometry relative="1" as="geometry">
            <mxPoint x="1152.323886639676" y="620" as="targetPoint" />
          </mxGeometry>
        </mxCell>
        <mxCell id="1c7a67bf8fd3230f-64" style="edgeStyle=none;html=1;labelBackgroundColor=none;startFill=0;endArrow=none;endFill=0;strokeWidth=2;fontFamily=Verdana;fontSize=12;" parent="1" target="1c7a67bf8fd3230f-9" edge="1">
          <mxGeometry relative="1" as="geometry">
            <mxPoint x="720" y="518.4402035623409" as="sourcePoint" />
          </mxGeometry>
        </mxCell>
        <mxCell id="1c7a67bf8fd3230f-65" style="edgeStyle=none;html=1;labelBackgroundColor=none;startFill=0;endArrow=none;endFill=0;strokeWidth=2;fontFamily=Verdana;fontSize=12;" parent="1" target="1c7a67bf8fd3230f-8" edge="1">
          <mxGeometry relative="1" as="geometry">
            <mxPoint x="720" y="536.1573604060914" as="sourcePoint" />
          </mxGeometry>
        </mxCell>
        <mxCell id="1c7a67bf8fd3230f-42" style="edgeStyle=none;html=1;labelBackgroundColor=none;startFill=0;endArrow=none;endFill=0;strokeWidth=2;fontFamily=Verdana;fontSize=12;" parent="1" source="1c7a67bf8fd3230f-7" edge="1">
          <mxGeometry relative="1" as="geometry">
            <mxPoint x="1382" y="523" as="targetPoint" />
          </mxGeometry>
        </mxCell>
        <mxCell id="1c7a67bf8fd3230f-43" style="edgeStyle=none;html=1;labelBackgroundColor=none;startFill=0;endArrow=none;endFill=0;strokeWidth=2;fontFamily=Verdana;fontSize=12;" parent="1" source="1c7a67bf8fd3230f-10" edge="1">
          <mxGeometry relative="1" as="geometry">
            <mxPoint x="1470" y="479.22988505747117" as="targetPoint" />
          </mxGeometry>
        </mxCell>
        <mxCell id="1c7a67bf8fd3230f-44" style="edgeStyle=none;html=1;labelBackgroundColor=none;startFill=0;endArrow=none;endFill=0;strokeWidth=2;fontFamily=Verdana;fontSize=12;" parent="1" source="1c7a67bf8fd3230f-10" edge="1">
          <mxGeometry relative="1" as="geometry">
            <mxPoint x="1521" y="560.0797101449275" as="targetPoint" />
          </mxGeometry>
        </mxCell>
        <mxCell id="1c7a67bf8fd3230f-51" style="edgeStyle=none;html=1;labelBackgroundColor=none;startFill=0;endArrow=none;endFill=0;strokeWidth=2;fontFamily=Verdana;fontSize=12;" parent="1" target="1c7a67bf8fd3230f-48" edge="1">
          <mxGeometry relative="1" as="geometry">
            <mxPoint x="1417.391304347826" y="556" as="sourcePoint" />
          </mxGeometry>
        </mxCell>
        <mxCell id="1c7a67bf8fd3230f-66" style="edgeStyle=none;html=1;labelBackgroundColor=none;startFill=0;endArrow=none;endFill=0;strokeWidth=2;fontFamily=Verdana;fontSize=12;" parent="1" target="1c7a67bf8fd3230f-21" edge="1">
          <mxGeometry relative="1" as="geometry">
            <mxPoint x="787.9716312056735" y="942" as="sourcePoint" />
          </mxGeometry>
        </mxCell>
        <mxCell id="1c7a67bf8fd3230f-60" style="edgeStyle=none;html=1;labelBackgroundColor=none;startFill=0;endArrow=none;endFill=0;strokeWidth=2;fontFamily=Verdana;fontSize=12;" parent="1" source="1c7a67bf8fd3230f-17" edge="1">
          <mxGeometry relative="1" as="geometry">
            <mxPoint x="1099.1655629139073" y="1007" as="targetPoint" />
          </mxGeometry>
        </mxCell>
        <mxCell id="1c7a67bf8fd3230f-69" style="edgeStyle=none;html=1;labelBackgroundColor=none;startFill=0;endArrow=none;endFill=0;strokeWidth=2;fontFamily=Verdana;fontSize=12;" parent="1" target="1c7a67bf8fd3230f-22" edge="1">
          <mxGeometry relative="1" as="geometry">
            <mxPoint x="1050" y="922.3995157384988" as="sourcePoint" />
          </mxGeometry>
        </mxCell>
        <mxCell id="1c7a67bf8fd3230f-70" style="edgeStyle=none;html=1;labelBackgroundColor=none;startFill=0;endArrow=none;endFill=0;strokeWidth=2;fontFamily=Verdana;fontSize=12;" parent="1" source="1c7a67bf8fd3230f-17" edge="1">
          <mxGeometry relative="1" as="geometry">
            <mxPoint x="954.0386100386099" y="1126" as="targetPoint" />
          </mxGeometry>
        </mxCell>
        <mxCell id="1c7a67bf8fd3230f-59" style="edgeStyle=none;html=1;labelBackgroundColor=none;startFill=0;endArrow=none;endFill=0;strokeWidth=2;fontFamily=Verdana;fontSize=12;" parent="1" source="1c7a67bf8fd3230f-18" edge="1">
          <mxGeometry relative="1" as="geometry">
            <mxPoint x="1460" y="1010.3934426229509" as="targetPoint" />
          </mxGeometry>
        </mxCell>
        <mxCell id="1c7a67bf8fd3230f-67" style="edgeStyle=none;html=1;labelBackgroundColor=none;startFill=0;endArrow=none;endFill=0;strokeWidth=2;fontFamily=Verdana;fontSize=12;" parent="1" target="1c7a67bf8fd3230f-19" edge="1">
          <mxGeometry relative="1" as="geometry">
            <mxPoint x="724" y="1040" as="sourcePoint" />
          </mxGeometry>
        </mxCell>
        <mxCell id="1c7a67bf8fd3230f-68" style="edgeStyle=none;html=1;labelBackgroundColor=none;startFill=0;endArrow=none;endFill=0;strokeWidth=2;fontFamily=Verdana;fontSize=12;" parent="1" target="1c7a67bf8fd3230f-20" edge="1">
          <mxGeometry relative="1" as="geometry">
            <mxPoint x="724" y="1055.0260869565218" as="sourcePoint" />
          </mxGeometry>
        </mxCell>
        <mxCell id="1c7a67bf8fd3230f-78" style="edgeStyle=none;html=1;labelBackgroundColor=none;startFill=0;endArrow=none;endFill=0;strokeWidth=2;fontFamily=Verdana;fontSize=12;" parent="1" target="1c7a67bf8fd3230f-29" edge="1">
          <mxGeometry relative="1" as="geometry">
            <mxPoint x="763.2789968652037" y="1083" as="sourcePoint" />
          </mxGeometry>
        </mxCell>
        <mxCell id="1c7a67bf8fd3230f-79" style="edgeStyle=none;html=1;labelBackgroundColor=none;startFill=0;endArrow=none;endFill=0;strokeWidth=2;fontFamily=Verdana;fontSize=12;" parent="1" target="1c7a67bf8fd3230f-28" edge="1">
          <mxGeometry relative="1" as="geometry">
            <mxPoint x="749.7993730407525" y="1083" as="sourcePoint" />
          </mxGeometry>
        </mxCell>
        <mxCell id="1c7a67bf8fd3230f-75" style="edgeStyle=none;html=1;labelBackgroundColor=none;startFill=0;endArrow=none;endFill=0;strokeWidth=2;fontFamily=Verdana;fontSize=12;" parent="1" target="1c7a67bf8fd3230f-33" edge="1">
          <mxGeometry relative="1" as="geometry">
            <mxPoint x="1133.4142394822006" y="1093" as="sourcePoint" />
          </mxGeometry>
        </mxCell>
        <mxCell id="1c7a67bf8fd3230f-76" style="edgeStyle=none;html=1;labelBackgroundColor=none;startFill=0;endArrow=none;endFill=0;strokeWidth=2;fontFamily=Verdana;fontSize=12;" parent="1" target="1c7a67bf8fd3230f-32" edge="1">
          <mxGeometry relative="1" as="geometry">
            <mxPoint x="1116.5760517799354" y="1093" as="sourcePoint" />
          </mxGeometry>
        </mxCell>
        <mxCell id="1c7a67bf8fd3230f-77" style="edgeStyle=none;html=1;labelBackgroundColor=none;startFill=0;endArrow=none;endFill=0;strokeWidth=2;fontFamily=Verdana;fontSize=12;" parent="1" target="1c7a67bf8fd3230f-31" edge="1">
          <mxGeometry relative="1" as="geometry">
            <mxPoint x="1102.6601941747572" y="1093" as="sourcePoint" />
          </mxGeometry>
        </mxCell>
        <mxCell id="1c7a67bf8fd3230f-71" style="edgeStyle=none;html=1;labelBackgroundColor=none;startFill=0;endArrow=none;endFill=0;strokeWidth=2;fontFamily=Verdana;fontSize=12;" parent="1" source="1c7a67bf8fd3230f-27" edge="1">
          <mxGeometry relative="1" as="geometry">
            <mxPoint x="1383" y="1050" as="targetPoint" />
          </mxGeometry>
        </mxCell>
        <mxCell id="1c7a67bf8fd3230f-72" style="edgeStyle=none;html=1;labelBackgroundColor=none;startFill=0;endArrow=none;endFill=0;strokeWidth=2;fontFamily=Verdana;fontSize=12;" parent="1" target="1c7a67bf8fd3230f-26" edge="1">
          <mxGeometry relative="1" as="geometry">
            <mxPoint x="1460" y="1072.6107784431138" as="sourcePoint" />
          </mxGeometry>
        </mxCell>
        <mxCell id="1c7a67bf8fd3230f-73" style="edgeStyle=none;html=1;labelBackgroundColor=none;startFill=0;endArrow=none;endFill=0;strokeWidth=2;fontFamily=Verdana;fontSize=12;" parent="1" target="1c7a67bf8fd3230f-35" edge="1">
          <mxGeometry relative="1" as="geometry">
            <mxPoint x="1514.822006472492" y="1093" as="sourcePoint" />
          </mxGeometry>
        </mxCell>
        <mxCell id="1c7a67bf8fd3230f-74" style="edgeStyle=none;html=1;labelBackgroundColor=none;startFill=0;endArrow=none;endFill=0;strokeWidth=2;fontFamily=Verdana;fontSize=12;" parent="1" target="1c7a67bf8fd3230f-34" edge="1">
          <mxGeometry relative="1" as="geometry">
            <mxPoint x="1486.7119741100323" y="1093" as="sourcePoint" />
          </mxGeometry>
        </mxCell>
        <mxCell id="1c7a67bf8fd3230f-55" style="edgeStyle=none;html=1;labelBackgroundColor=none;startFill=0;endArrow=none;endFill=0;strokeWidth=2;fontFamily=Verdana;fontSize=12;" parent="1" target="1c7a67bf8fd3230f-13" edge="1">
          <mxGeometry relative="1" as="geometry">
            <mxPoint x="916.0753209241971" y="683" as="sourcePoint" />
          </mxGeometry>
        </mxCell>
        <mxCell id="1c7a67bf8fd3230f-54" style="edgeStyle=none;html=1;labelBackgroundColor=none;startFill=0;endArrow=none;endFill=0;strokeWidth=2;fontFamily=Verdana;fontSize=12;" parent="1" target="1c7a67bf8fd3230f-14" edge="1">
          <mxGeometry relative="1" as="geometry">
            <mxPoint x="1176.1157625455294" y="673" as="sourcePoint" />
          </mxGeometry>
        </mxCell>
        <mxCell id="1c7a67bf8fd3230f-52" style="edgeStyle=none;html=1;labelBackgroundColor=none;startFill=0;endArrow=none;endFill=0;strokeWidth=2;fontFamily=Verdana;fontSize=12;" parent="1" target="1c7a67bf8fd3230f-15" edge="1">
          <mxGeometry relative="1" as="geometry">
            <mxPoint x="1500" y="671.603592745784" as="sourcePoint" />
          </mxGeometry>
        </mxCell>
        <mxCell id="BhH3KAKB16STnTIF-opn-1" value="SQL" style="shape=mxgraph.cisco.storage.relational_database;html=1;pointerEvents=1;dashed=0;fillColor=#036897;strokeColor=#ffffff;strokeWidth=2;verticalLabelPosition=bottom;verticalAlign=top;align=center;outlineConnect=0;" vertex="1" parent="1">
          <mxGeometry x="502" y="280" width="96" height="85" as="geometry" />
        </mxCell>
        <mxCell id="BhH3KAKB16STnTIF-opn-2" value="" style="shape=mxgraph.cisco.storage.relational_database;html=1;pointerEvents=1;dashed=0;fillColor=#dae8fc;strokeColor=#6c8ebf;strokeWidth=2;verticalLabelPosition=bottom;verticalAlign=top;align=center;outlineConnect=0;" vertex="1" parent="1">
          <mxGeometry x="940" y="280" width="96" height="85" as="geometry" />
        </mxCell>
        <mxCell id="BhH3KAKB16STnTIF-opn-3" value="" style="shape=mxgraph.cisco.storage.relational_database;html=1;pointerEvents=1;dashed=0;fillColor=#d5e8d4;strokeColor=#82b366;strokeWidth=2;verticalLabelPosition=bottom;verticalAlign=top;align=center;outlineConnect=0;" vertex="1" parent="1">
          <mxGeometry x="1110" y="280" width="96" height="85" as="geometry" />
        </mxCell>
        <mxCell id="BhH3KAKB16STnTIF-opn-4" value="" style="shape=mxgraph.cisco.storage.relational_database;html=1;pointerEvents=1;dashed=0;fillColor=#d5e8d4;strokeColor=#82b366;strokeWidth=2;verticalLabelPosition=bottom;verticalAlign=top;align=center;outlineConnect=0;" vertex="1" parent="1">
          <mxGeometry x="1270" y="280" width="96" height="85" as="geometry" />
        </mxCell>
        <mxCell id="BhH3KAKB16STnTIF-opn-5" value="" style="shape=mxgraph.cisco.computers_and_peripherals.pc;html=1;pointerEvents=1;dashed=0;fillColor=#dae8fc;strokeColor=#6c8ebf;strokeWidth=2;verticalLabelPosition=bottom;verticalAlign=top;align=center;outlineConnect=0;" vertex="1" parent="1">
          <mxGeometry x="550" y="470" width="100" height="100" as="geometry" />
        </mxCell>
        <mxCell id="BhH3KAKB16STnTIF-opn-7" value="" style="shape=mxgraph.cisco.computers_and_peripherals.pc;html=1;pointerEvents=1;dashed=0;fillColor=#d5e8d4;strokeColor=#82b366;strokeWidth=2;verticalLabelPosition=bottom;verticalAlign=top;align=center;outlineConnect=0;" vertex="1" parent="1">
          <mxGeometry x="760" y="470" width="100" height="100" as="geometry" />
        </mxCell>
        <mxCell id="BhH3KAKB16STnTIF-opn-8" value="" style="shape=mxgraph.cisco.servers.www_server;html=1;pointerEvents=1;dashed=0;fillColor=#dae8fc;strokeColor=#6c8ebf;strokeWidth=2;verticalLabelPosition=bottom;verticalAlign=top;align=center;outlineConnect=0;" vertex="1" parent="1">
          <mxGeometry x="1036" y="470" width="100" height="103" as="geometry" />
        </mxCell>
        <mxCell id="BhH3KAKB16STnTIF-opn-9" value="" style="shape=mxgraph.cisco.servers.www_server;html=1;pointerEvents=1;dashed=0;fillColor=#d5e8d4;strokeColor=#82b366;strokeWidth=2;verticalLabelPosition=bottom;verticalAlign=top;align=center;outlineConnect=0;" vertex="1" parent="1">
          <mxGeometry x="1266" y="470" width="100" height="103" as="geometry" />
        </mxCell>
        <mxCell id="BhH3KAKB16STnTIF-opn-10" value="" style="shape=mxgraph.cisco.storage.cloud;html=1;pointerEvents=1;dashed=0;fillColor=#dae8fc;strokeColor=#6c8ebf;strokeWidth=2;verticalLabelPosition=bottom;verticalAlign=top;align=center;outlineConnect=0;" vertex="1" parent="1">
          <mxGeometry x="674" y="275" width="186" height="106" as="geometry" />
        </mxCell>
      </root>
    </mxGraphModel>
  </diagram>
</mxfile>
